<?xml version="1.0" encoding="utf-8"?>
<!-- Generator: Adobe Illustrator 24.3.0, SVG Export Plug-In . SVG Version: 6.00 Build 0)  -->
<svg version="1.1"
	 id="svg2" xmlns:cc="http://creativecommons.org/ns#" xmlns:dc="http://purl.org/dc/elements/1.1/" xmlns:rdf="http://www.w3.org/1999/02/22-rdf-syntax-ns#" xmlns:svg="http://www.w3.org/2000/svg"
	 xmlns="http://www.w3.org/2000/svg" xmlns:xlink="http://www.w3.org/1999/xlink" x="0px" y="0px" viewBox="0 0 378 378"
	 style="enable-background:new 0 0 378 378;" xml:space="preserve">
<style type="text/css">
	.st0{clip-path:url(#SVGID_2_);}
	.st1{fill:#FFFFFF;}
</style>
<g id="g10" transform="matrix(1.3333333,0,0,-1.3333333,0,377.95333)">
	<g id="g12">
		<g>
			<defs>
				<rect id="SVGID_1_" x="-47.2" y="-47.2" width="378" height="378"/>
			</defs>
			<clipPath id="SVGID_2_">
				<use xlink:href="#SVGID_1_"  style="overflow:visible;"/>
			</clipPath>
			<g id="g14" class="st0">
				<g id="g20" transform="translate(177.0988,188.5919)">
					<path id="path22" class="st1" d="M0,0c-5.3-19.8-14.6-36.4-27.6-49.4C-34.5-36.5-39.3-20-42.2,0h19.3v0H0z M-83.1-15.8
						c4-23.5,10.2-42.4,17.7-57.7c-5.5-2-11.4-3.8-17.7-5.3V-15.8z M55.2-131.6l-30.4-0.1l-1.6,0.1c-13,0.6-34.5,4.5-54.9,21.3
						c-1.2,1-2.4,2-3.6,3.1c-8.5,7.8-16.8,18-23.9,31.4c-0.7,1.3-1.4,2.6-2.1,4C-70.4-53.2-77.6-29-81.1,2.5l-0.2,2h-1.8h-4.5V0
						v-84.4l2.7,0.6c7.7,1.7,14.9,3.8,21.5,6.3c7.2-13.5,15.4-24,24-32.1c-36.8-19.6-75.9-21.8-86.4-22.1v23.9l-0.2,2.2V0v37.8h0.7
						V38h42.1h60.2h66.2h0.2c0-2.2-0.1-4.3-0.2-6.4C42.7,20.3,41.4,9.8,39.4,0C32.3-35.5,16.9-60.8,0.8-78.4
						c-10.5,5-19.2,13.3-26.1,24.9C-11-39.5-0.9-21.6,4.7,0c0.1,0.6,0.3,1.1,0.4,1.7l0.7,2.8h-24.2v0h-4.5h-24.5L-47,2
						c3-22.3,8.3-40.6,16-54.7c0.7-1.4,1.5-2.7,2.3-4c7-11.5,15.7-19.9,26.2-25.2c1.4-0.7,2.9-1.4,4.3-2c7.5-3.1,15.9-4.7,25-4.8
						l28.4,0.2L55.2-131.6z M26.9-84.2c-7.9,0.1-15.1,1.4-21.7,3.9C27-55.9,47.2-17.7,48,40.2l0,2.3h-4.8h-66.2h-106.8v-0.2h-0.7
						v-150.1l0.2-2.2v-26.2h2.3c5.2,0,50.4,0.7,92.2,23.4c20.6-17.7,42.7-22.3,56.8-23.3v-0.2l38.8,0.2V-84L26.9-84.2z"/>
				</g>
			</g>
		</g>
	</g>
</g>
</svg>
